<?xml version="1.0" encoding="iso-8859-1"?>
<!-- Uploaded to: SVG Repo, www.svgrepo.com, Generator: SVG Repo Mixer Tools -->
<svg fill="currentColor" version="1.1" id="Layer_1" xmlns="http://www.w3.org/2000/svg" xmlns:xlink="http://www.w3.org/1999/xlink"
	 viewBox="0 0 511.999 511.999" xml:space="preserve">
	<g transform="scale(-1, 1) translate(-512, 0)">
		<rect x="340.059" y="-20.769" transform="matrix(-0.7071 -0.7071 0.7071 -0.7071 477.8617 526.1467)" width="15.682" height="369.747"/>
		<polygon points="506.405,16.682 506.429,16.658 495.34,5.569 495.316,5.593 489.723,0 478.634,11.09 484.227,16.683
			478.634,22.276 489.723,33.365 495.315,27.772 500.908,33.365 511.998,22.275 			"/>

		<rect x="114.216" y="342.688" transform="matrix(-0.7071 -0.7071 0.7071 -0.7071 27.7791 712.5638)" width="94.502" height="15.682"/>

		<rect x="-1.375" y="481.906" transform="matrix(-0.7071 -0.7071 0.7071 -0.7071 -308.3146 851.7864)" width="47.256" height="15.682"/>
		<path d="M217.13,305.955l-11.089-11.088l-5.856,5.856c-33.986-28.36-84.763-26.61-116.657,5.282l-5.544,5.545l44.549,44.549
			L16.729,461.906l33.364,33.363l105.805-105.805l44.55,44.55l5.544-5.544c16.356-16.357,25.363-38.102,25.363-61.232
			c0.001-20.496-7.085-39.896-20.075-55.431L217.13,305.955z M50.093,473.091l-11.186-11.185l11.21-11.21l2.797,19.574
			L50.093,473.091z M66.775,456.409l-2.797-19.575l8.413-8.413l2.797,19.575L66.775,456.409z M89.05,434.135l-2.797-19.575
			l8.413-8.413l2.797,19.575L89.05,434.135z M111.325,411.859l-2.797-19.575l8.413-8.413l2.797,19.575L111.325,411.859z
				M133.599,389.584l-2.797-19.575l2.821-2.821l11.186,11.185L133.599,389.584z M215.674,367.236
			c0,16.305-5.464,31.766-15.527,44.298l-99.683-99.683c12.531-10.063,27.994-15.527,44.298-15.527
			c18.941,0,36.748,7.376,50.142,20.77C208.298,330.487,215.674,348.295,215.674,367.236z"/>
	</g>
</svg>
